HIERARCHY
ROOT Hips
{
	OFFSET 56.877701 -32.693596 43.373703
	CHANNELS 6 Xposition Yposition Zposition Zrotation Xrotation Yrotation
	JOINT Chest
	{
		OFFSET -0.779999 1.005800 5.403099
		CHANNELS 6 Xposition Yposition Zposition Zrotation Xrotation Yrotation
		JOINT Chest2
		{
			OFFSET 0.000000 0.000000 4.236801
			CHANNELS 6 Xposition Yposition Zposition Zrotation Xrotation Yrotation
			JOINT Neck
			{
				OFFSET 0.000000 0.000000 9.874401
				CHANNELS 6 Xposition Yposition Zposition Zrotation Xrotation Yrotation
				JOINT Head
				{
					OFFSET 0.000000 0.000002 2.173893
					CHANNELS 6 Xposition Yposition Zposition Zrotation Xrotation Yrotation
					End Site
					{
						OFFSET 0.000000 0.000000 6.508102
					}
				}
			}
			JOINT LeftCollar
			{
				OFFSET 2.681599 -0.377600 5.432499
				CHANNELS 6 Xposition Yposition Zposition Zrotation Xrotation Yrotation
				JOINT LeftShoulder
				{
					OFFSET 5.161499 0.000000 0.000000
					CHANNELS 6 Xposition Yposition Zposition Zrotation Xrotation Yrotation
					JOINT LeftElbow
					{
						OFFSET 0.000000 0.000000 -10.869099
						CHANNELS 6 Xposition Yposition Zposition Zrotation Xrotation Yrotation
						JOINT LeftWrist
						{
							OFFSET 0.000000 0.000000 -13.344799
							CHANNELS 6 Xposition Yposition Zposition Zrotation Xrotation Yrotation
							End Site
							{
								OFFSET 0.000000 0.000000 -2.173901
							}
						}
					}
				}
			}
			JOINT RightCollar
			{
				OFFSET -2.381901 -1.419600 6.136600
				CHANNELS 6 Xposition Yposition Zposition Zrotation Xrotation Yrotation
				JOINT RightShoulder
				{
					OFFSET -4.550499 0.000000 0.000000
					CHANNELS 6 Xposition Yposition Zposition Zrotation Xrotation Yrotation
					JOINT RightElbow
					{
						OFFSET 0.000000 0.000000 -11.106499
						CHANNELS 6 Xposition Yposition Zposition Zrotation Xrotation Yrotation
						JOINT RightWrist
						{
							OFFSET 0.000000 0.000000 -12.874298
							CHANNELS 6 Xposition Yposition Zposition Zrotation Xrotation Yrotation
							End Site
							{
								OFFSET 0.000000 0.000000 -2.173901
							}
						}
					}
				}
			}
		}
	}
	JOINT LeftHip
	{
		OFFSET 2.431900 0.469601 -2.489399
		CHANNELS 6 Xposition Yposition Zposition Zrotation Xrotation Yrotation
		JOINT LeftKnee
		{
			OFFSET 0.000000 -0.000004 -18.200201
			CHANNELS 6 Xposition Yposition Zposition Zrotation Xrotation Yrotation
			JOINT LeftAnkle
			{
				OFFSET 0.000000 0.000000 -16.279900
				CHANNELS 6 Xposition Yposition Zposition Zrotation Xrotation Yrotation
				End Site
				{
					OFFSET 0.000000 -8.394100 0.000000
				}
			}
		}
	}
	JOINT RightHip
	{
		OFFSET -1.987999 -0.073502 -2.713001
		CHANNELS 6 Xposition Yposition Zposition Zrotation Xrotation Yrotation
		JOINT RightKnee
		{
			OFFSET 0.000000 -0.000004 -19.547802
			CHANNELS 6 Xposition Yposition Zposition Zrotation Xrotation Yrotation
			JOINT RightAnkle
			{
				OFFSET 0.000000 0.000000 -14.881199
				CHANNELS 6 Xposition Yposition Zposition Zrotation Xrotation Yrotation
				End Site
				{
					OFFSET 0.000000 -7.922699 0.000000
				}
			}
		}
	}
}
MOTION
Frames: 4
Frame Time: 0.041667
-26.196609 -54.341698 45.387203 4680.866553 12.174196 6.582545 -0.779997 1.005800 5.403097 -2.429670 -14.609863 -7.700833 0.000010 0.000002 4.236798 6.172082 2.466336 1.064170 -0.000001 -0.000006 9.874400 -31.344763 6.489925 -5.592961 0.000005 0.000005 2.173891 -2.060124 3.070589 -4.679582 2.681597 -0.377601 5.432500 -5.183445 5.447497 -21.877525 5.161495 0.000002 -0.000003 213.559129 -174.172843 127.637685 0.000013 0.000002 -10.869106 -317.963010 -21.120292 -312.181173 0.000010 -0.000008 -13.344803 30.011667 -24.056532 66.524745 -2.381898 -1.419596 6.136592 12.413964 0.825165 4.844814 -4.550510 -0.000011 0.000002 -1245.127749 -487.046801 -466.233740 0.000014 -0.000008 -11.106491 584.755116 -45.368131 571.753988 -0.000003 0.000011 -12.874292 -369.440397 4.296093 -52.579988 2.431902 0.469600 -2.489397 -338.437267 -27.716792 -8.569732 0.000002 -0.000000 -18.200195 368.962994 31.852123 -5.531917 0.000001 -0.000003 -16.279903 -21.974404 41.460788 -14.098325 -1.987995 -0.073508 -2.712998 -29.435943 -25.709971 6.855185 0.000004 0.000010 -19.547798 -1457.910217 27.725488 -352.277771 0.000000 0.000008 -14.881198 2010.902331 118.940054 -533.698414
-25.616295 -54.295696 45.263306 4680.049553 12.008307 5.724740 -0.779991 1.005802 5.403092 -1.230244 -14.476113 -8.014243 -0.000000 0.000005 4.236808 5.368196 2.369026 0.925179 -0.000008 0.000006 9.874397 -31.575968 5.632054 -2.981155 0.000004 0.000003 2.173891 -1.936435 3.172975 -4.454065 2.681591 -0.377603 5.432499 -4.458650 5.219233 -23.049699 5.161501 0.000002 -0.000001 214.100954 -172.252371 125.816743 -0.000001 0.000006 -10.869110 -317.415065 -19.403758 -317.683409 0.000002 0.000005 -13.344794 30.398006 -24.399977 67.687386 -2.381908 -1.419597 6.136595 13.352238 1.148921 3.537673 -4.550506 -0.000004 0.000004 -1247.228824 -486.104673 -469.438902 -0.000002 -0.000010 -11.106489 582.675242 -45.381525 569.403255 0.000010 0.000010 -12.874303 -369.569324 3.680996 -48.805933 2.431900 0.469602 -2.489394 -339.744374 -26.618994 -7.687538 -0.000001 -0.000008 -18.200197 363.887426 33.382239 -3.231619 0.000006 -0.000002 -16.279898 -15.097670 38.429738 -14.069344 -1.988001 -0.073494 -2.713004 -36.059704 -28.657466 5.083079 0.000007 -0.000017 -19.547798 -1455.697126 28.714771 -350.335074 0.000001 -0.000004 -14.881201 2016.312496 118.374842 -535.367221
-25.049011 -54.239994 45.131199 4679.322603 11.616162 5.135537 -0.780002 1.005802 5.403092 -0.215135 -14.006334 -8.618898 0.000004 -0.000006 4.236801 4.597543 2.222777 0.853696 -0.000005 0.000002 9.874406 -31.751657 4.630484 -0.387551 0.000004 0.000002 2.173884 -1.839698 3.361518 -4.392431 2.681592 -0.377600 5.432503 -3.761856 4.837464 -24.031901 5.161499 -0.000004 -0.000007 214.144367 -170.213724 123.740994 0.000003 -0.000006 -10.869103 -316.384990 -17.432250 -322.977844 -0.000003 0.000009 -13.344799 29.816078 -24.420996 66.513277 -2.381902 -1.419597 6.136600 13.404992 1.122754 2.088097 -4.550508 -0.000008 0.000002 -1248.568853 -485.838459 -472.435442 0.000005 -0.000011 -11.106490 579.934096 -44.021013 565.948600 -0.000000 0.000012 -12.874294 -369.344528 6.691998 -43.904893 2.431897 0.469606 -2.489394 -340.652106 -25.769324 -6.903200 -0.000003 -0.000002 -18.200199 362.044996 34.621597 -2.288578 0.000003 -0.000001 -16.279896 -11.621321 35.942825 -14.074323 -1.988005 -0.073496 -2.712996 -46.927098 -31.813430 0.494567 -0.000007 -0.000012 -19.547802 -1452.306948 29.960454 -347.379268 -0.000004 0.000000 -14.881199 2023.461355 117.483297 -537.060616
-24.493607 -54.178902 44.991905 4678.609640 10.968265 4.166198 -0.779993 1.005804 5.403097 0.962371 -13.138624 -8.795116 0.000003 0.000007 4.236803 3.701907 2.013137 0.796268 -0.000004 -0.000005 9.874401 -31.535287 3.453855 1.997751 -0.000001 0.000002 2.173891 -1.716149 3.458128 -4.252173 2.681596 -0.377607 5.432500 -3.012792 4.306604 -24.822116 5.161501 -0.000002 0.000002 213.861269 -167.907333 121.781686 0.000010 0.000002 -10.869099 -315.775000 -15.740620 -328.361836 0.000006 0.000003 -13.344798 30.192120 -24.543175 65.894428 -2.381901 -1.419604 6.136594 14.002009 1.357599 1.120291 -4.550506 -0.000002 -0.000001 -1249.961556 -486.212426 -474.958951 0.000004 -0.000013 -11.106487 577.408893 -43.580118 563.137950 0.000004 0.000007 -12.874297 -369.004084 6.405878 -39.035323 2.431904 0.469603 -2.489397 -341.196936 -24.715434 -5.718480 0.000007 -0.000016 -18.200201 360.036948 35.915505 -1.277733 -0.000004 0.000006 -16.279900 -8.278291 33.536027 -14.013437 -1.987991 -0.073498 -2.713002 -58.558845 -34.451443 -5.014126 -0.000000 0.000009 -19.547798 -1448.318008 31.148545 -344.473078 -0.000003 0.000004 -14.881195 2029.971345 116.549050 -538.364253
